<?xml version="1.0" standalone="no"?>
<!DOCTYPE svg PUBLIC "-//W3C//DTD SVG 20010904//EN"
 "http://www.w3.org/TR/2001/REC-SVG-20010904/DTD/svg10.dtd">
<svg version="1.0" xmlns="http://www.w3.org/2000/svg"
 width="606.000000pt" height="606.000000pt" viewBox="0 0 606.000000 606.000000"
 preserveAspectRatio="xMidYMid meet">
<metadata>
Created by potrace 1.14, written by Peter Selinger 2001-2017
</metadata>
<g transform="translate(0.000000,606.000000) scale(0.100000,-0.100000)"
fill="#000000" stroke="none">
<path d="M2880 6044 c-62 -12 -177 -47 -233 -70 -154 -65 -204 -108 -718 -622
-508 -509 -550 -557 -635 -725 -93 -184 -134 -357 -134 -567 0 -209 44 -396
135 -574 64 -126 123 -205 254 -338 l114 -118 -114 -117 c-131 -134 -190 -213
-254 -339 -91 -178 -135 -365 -135 -574 0 -267 76 -508 230 -730 69 -98 998
-1030 1087 -1089 91 -60 188 -106 289 -137 82 -26 103 -28 259 -28 187 -1 269
14 400 73 150 68 191 105 688 600 280 278 505 510 541 559 166 219 248 464
250 742 1 223 -39 392 -136 582 -64 126 -121 203 -253 344 l-107 114 98 103
c178 188 280 350 342 547 44 139 56 228 56 390 -2 278 -84 523 -250 742 -36
49 -261 281 -541 559 -496 495 -538 532 -687 599 -119 54 -207 72 -371 75 -82
2 -161 1 -175 -1z m310 -489 c25 -10 68 -33 95 -51 28 -17 262 -245 521 -505
511 -514 525 -531 579 -692 56 -169 55 -341 -3 -506 -43 -121 -86 -185 -209
-311 l-112 -115 -396 395 -395 395 0 287 0 288 -28 0 c-97 0 -239 -68 -315
-150 -111 -120 -137 -207 -137 -465 l0 -170 753 -755 754 -755 46 -95 c99
-202 111 -408 36 -614 -55 -153 -89 -193 -606 -707 -401 -399 -487 -479 -534
-502 -154 -73 -327 -61 -465 32 -79 53 -959 938 -1008 1014 -145 223 -169 509
-61 744 47 103 85 155 199 271 l100 103 393 -393 393 -393 0 -292 0 -293 33 0
c141 1 322 117 390 252 48 96 57 146 57 348 l0 185 -721 720 c-396 396 -741
748 -765 782 -98 135 -144 282 -144 456 0 182 55 337 169 480 91 112 928 940
984 972 88 50 152 66 257 61 60 -2 111 -10 140 -21z"/>
</g>
</svg>
